<svg width="142" height="56" xmlns="http://www.w3.org/2000/svg"><g fill="none" fill-rule="evenodd"><path d="M2.36 26.855l30.103 19.818c2.322 1.53 2.956 4.66 1.463 7.02-1.533 2.426-4.684 2.96-6.945 1.48L3.787 39.908s-2.91-1.69-3.576-4.84c-.875-4.14 1.772-7.727 2.113-8.168l.036-.045zM28.88 11.412c2.73-.001 4.945 2.238 4.945 4.999 0 2.76-2.214 5-4.945 5-1.155 0-2.03-.381-2.865-.925l-6.19-4.075 6.19-4.076c.826-.544 1.674-.923 2.865-.923z" fill="#38D200"/><path d="M4.945 45.983c1.155 0 2.03.38 2.865.924L14 50.983l-6.19 4.075c-.827.544-1.674.924-2.865.924-2.73 0-4.945-2.238-4.945-5 0-2.76 2.214-4.999 4.945-4.999zM24.633 2.357c1.51 2.349.851 5.492-1.473 7.019L12.473 16.41l18.21 11.988s.067.04.183.115l.163.108c.86.59 3.06 2.317 3.577 4.88.902 4.471-2.143 8.155-2.143 8.155L5.011 23.583S1.458 21.415 1.458 16.4c0-5 3.552-7.14 3.552-7.14L17.69.867a4.986 4.986 0 016.943 1.489z" fill="#0473EA"/><path d="M139.194 27.078l1.819 1.124v13.436h-1.82V39.74c-.887 1.323-2.307 2.13-4.015 2.13-3.196 0-5.48-2.4-5.48-5.674 0-3.342 2.284-5.787 5.48-5.787 1.708 0 3.128.83 4.016 2.176v-5.507zm-46.366-.005l1.797 1.123v9.767c0 1.547.932 2.153 2.108 2.153.888 0 1.775-.247 2.552-.807v1.772c-.755.56-1.798.785-2.707.785-2.33 0-3.75-1.055-3.75-4.038V27.073zm30.43 3.306c3.15 0 5.213 2.355 5.213 5.518 0 .314-.022.628-.066.92h-8.631c.266 1.996 1.82 3.319 3.994 3.319 1.397 0 2.75-.404 3.905-1.234v1.75c-1.176.807-2.508 1.189-3.905 1.189-3.44 0-5.902-2.243-5.902-5.63 0-3.32 2.085-5.832 5.391-5.832zm-46.195 0c1.708 0 3.106.807 4.016 2.13v-1.928h1.82v11.058h-1.82v-1.884c-.91 1.3-2.308 2.086-4.016 2.086-3.195 0-5.48-2.4-5.48-5.675 0-3.342 2.285-5.787 5.48-5.787zm-22.565 0c1.309 0 2.53.381 3.506 1.121v2.041c-.866-.942-2.064-1.435-3.395-1.435-2.33 0-3.972 1.637-3.972 3.993 0 2.355 1.664 4.014 3.994 4.014 1.31 0 2.53-.358 3.484-1.188v1.861c-1.066.74-2.33 1.055-3.661 1.055-3.35 0-5.68-2.356-5.68-5.742 0-3.365 2.396-5.72 5.724-5.72zm50.255 0c3.15 0 5.214 2.355 5.214 5.518 0 .314-.022.628-.067.92h-8.63c.265 1.996 1.819 3.319 3.993 3.319 1.398 0 2.751-.404 3.905-1.234v1.75c-1.176.807-2.507 1.189-3.905 1.189-3.439 0-5.902-2.243-5.902-5.63 0-3.32 2.086-5.832 5.392-5.832zM60.11 27.075l1.797 1.123v4.267c.821-1.279 2.13-2.086 3.795-2.086 2.75 0 4.215 2.041 4.215 4.755v6.505h-1.82v-6.191c0-2.153-.93-3.297-2.84-3.297-2.018 0-3.35 1.75-3.35 3.948v5.54h-1.797V27.075zm31.374 3.304v2.086c-2.175-.314-3.994 1.166-3.994 3.903v5.27h-1.797V30.582h1.797v2.355c.865-1.638 2.263-2.557 3.994-2.557zm26.247 0v2.086c-2.174-.314-3.993 1.166-3.993 3.903v5.27h-1.798V30.582h1.798v2.355c.865-1.638 2.263-2.557 3.993-2.557zm17.623 1.757c-2.219 0-3.794 1.705-3.794 4.037 0 2.288 1.575 3.97 3.794 3.97 2.241 0 3.839-1.682 3.839-3.97 0-2.332-1.598-4.037-3.839-4.037zm-58.115-.03c-2.218 0-3.794 1.705-3.794 4.037 0 2.288 1.576 3.97 3.794 3.97 2.241 0 3.839-1.682 3.839-3.97 0-2.332-1.598-4.037-3.839-4.037zm27.535-.045c-1.997 0-3.195 1.413-3.483 3.275h6.767c-.178-1.884-1.354-3.275-3.284-3.275zm18.504 0c-1.996 0-3.194 1.413-3.483 3.275h6.767c-.177-1.884-1.353-3.275-3.284-3.275zm-27.258-1.638a1.375 1.375 0 011.51.013l1.81 1.218-1.788 1.16a1.375 1.375 0 01-1.495.001l-.039-.025a1.411 1.411 0 01.002-2.367zM70.673 14.208c1.708 0 3.106.808 4.016 2.131V14.41h1.82v11.058h-1.82v-1.884c-.91 1.301-2.308 2.086-4.016 2.086-3.195 0-5.48-2.4-5.48-5.675 0-3.342 2.285-5.787 5.48-5.787zm-10.695-3.34v10.9c0 1.547.932 2.153 2.108 2.153.888 0 1.775-.247 2.552-.808v1.772c-.754.56-1.797.785-2.707.785-2.33 0-3.75-1.054-3.75-4.037v-9.641l1.797-1.125zm75.395 0v14.6h-1.82V23.54c-.887 1.324-2.307 2.131-4.016 2.131-3.195 0-5.48-2.4-5.48-5.675 0-3.342 2.285-5.787 5.48-5.787 1.709 0 3.129.83 4.016 2.176v-4.393l1.82-1.123zm-25.85 3.34c1.71 0 3.107.808 4.016 2.131V14.41h1.82v11.058h-1.82v-1.884c-.91 1.301-2.307 2.086-4.015 2.086-3.195 0-5.48-2.4-5.48-5.675 0-3.342 2.285-5.787 5.48-5.787zm-56.822 0c1.287 0 2.485.36 3.328 1.01v1.906c-.999-.897-2.219-1.413-3.306-1.413-1.154 0-1.975.539-1.975 1.436 0 .673.31 1.076 1.176 1.413l2.596 1.054c1.398.606 2.041 1.458 2.041 2.647 0 2.108-1.686 3.41-4.06 3.41-1.442 0-2.751-.405-3.705-1.122v-1.974c1.153 1.099 2.44 1.592 3.727 1.592s2.22-.56 2.22-1.57c0-.605-.312-1.076-1.133-1.413l-2.596-1.054c-1.33-.583-2.063-1.346-2.063-2.781 0-1.93 1.531-3.14 3.75-3.14zm49.39-3.34v14.6h-1.82V23.54c-.887 1.324-2.307 2.131-4.016 2.131-3.195 0-5.48-2.4-5.48-5.675 0-3.342 2.285-5.787 5.48-5.787 1.709 0 3.129.83 4.016 2.176v-4.393l1.82-1.123zm21.854 3.34v2.086c-2.174-.314-3.993 1.167-3.993 3.903v5.271h-1.798V14.41h1.798v2.355c.865-1.637 2.263-2.557 3.993-2.557zm-39.05 0c2.751 0 4.216 2.042 4.216 4.756v6.504h-1.82v-6.19c0-2.154-.932-3.298-2.84-3.298-2.019 0-3.35 1.75-3.35 3.948v5.54h-1.797V14.41H81.1v1.884c.82-1.278 2.13-2.086 3.794-2.086zM70.85 15.936c-2.218 0-3.794 1.704-3.794 4.037 0 2.288 1.576 3.97 3.794 3.97 2.241 0 3.839-1.682 3.839-3.97 0-2.333-1.598-4.037-3.839-4.037zm25.583 0c-2.219 0-3.794 1.704-3.794 4.037 0 2.288 1.575 3.97 3.794 3.97 2.24 0 3.838-1.682 3.838-3.97 0-2.333-1.597-4.037-3.838-4.037zm33.282 0c-2.219 0-3.794 1.704-3.794 4.037 0 2.288 1.575 3.97 3.794 3.97 2.24 0 3.838-1.682 3.838-3.97 0-2.333-1.597-4.037-3.838-4.037zm-20.014 0c-2.219 0-3.794 1.704-3.794 4.037 0 2.288 1.575 3.97 3.794 3.97 2.241 0 3.838-1.682 3.838-3.97 0-2.333-1.597-4.037-3.838-4.037zM62.484 14.39a1.375 1.375 0 011.495-.005l.038.024c.858.55.86 1.815.004 2.367a1.375 1.375 0 01-1.509-.01l-1.813-1.213z" fill="#525355"/></g></svg>