<svg width="36" height="56" xmlns="http://www.w3.org/2000/svg"><title>sc-logomark</title><g fill="none" fill-rule="evenodd"><path d="M2.349 26.708l30.406 19.92c2.346 1.538 3.008 4.698 1.479 7.057a5.051 5.051 0 01-7.016 1.487L3.79 39.828S.85 38.13.178 34.963c-.944-4.445 2.17-8.255 2.17-8.255zm26.786-15.781c2.757.002 4.992 2.251 4.992 5.025 0 2.773-2.235 5.023-4.992 5.025a5.086 5.086 0 01-2.893-.929l-6.253-4.096 6.253-4.097a4.973 4.973 0 012.893-.928z" fill="#38D200"/><path d="M4.986 45.99a5.084 5.084 0 012.888.924l6.24 4.08-6.24 4.081A4.97 4.97 0 014.986 56C2.232 56 0 53.76 0 50.995c0-2.764 2.232-5.005 4.986-5.005zM24.834 2.312a5.092 5.092 0 01-1.485 7.027l-10.774 7.043 18.358 12.003s3.305 1.901 3.956 5.11c.87 4.285-1.907 7.848-2.145 8.143l-.016.02L5.052 23.563S1.47 21.392 1.47 16.37c0-5.005 3.58-7.149 3.58-7.149l12.784-8.4a5.048 5.048 0 017 1.49z" fill="#0473EA"/></g></svg>
